<svg width="22" height="22" viewBox="0 0 22 22" fill="none" xmlns="http://www.w3.org/2000/svg">
<path d="M11.2828 5.3166C8.24093 5.3166 5.78738 7.8148 5.78738 10.912C5.78738 14.0092 8.24093 16.5074 11.2828 16.5074C14.3246 16.5074 16.7781 14.0092 16.7781 10.912C16.7781 7.8148 14.3246 5.3166 11.2828 5.3166ZM11.2828 14.5497C9.31704 14.5497 7.71004 12.9183 7.71004 10.912C7.71004 8.90563 9.31226 7.27425 11.2828 7.27425C13.2532 7.27425 14.8555 8.90563 14.8555 10.912C14.8555 12.9183 13.2485 14.5497 11.2828 14.5497ZM18.2847 5.08772C18.2847 5.81331 17.7108 6.39282 17.0029 6.39282C16.2903 6.39282 15.7211 5.80844 15.7211 5.08772C15.7211 4.36699 16.2951 3.78261 17.0029 3.78261C17.7108 3.78261 18.2847 4.36699 18.2847 5.08772ZM21.9244 6.4123C21.8431 4.66404 21.4509 3.11545 20.193 1.83956C18.9399 0.563678 17.419 0.164355 15.702 0.0766992C13.9324 -0.0255664 8.62833 -0.0255664 6.85871 0.0766992C5.14649 0.159486 3.62558 0.558809 2.36772 1.83469C1.10986 3.11058 0.722453 4.65917 0.636363 6.40743C0.535926 8.20925 0.535926 13.6098 0.636363 15.4117C0.71767 17.1599 1.10986 18.7085 2.36772 19.9844C3.62558 21.2603 5.14171 21.6596 6.85871 21.7473C8.62833 21.8495 13.9324 21.8495 15.702 21.7473C17.419 21.6645 18.9399 21.2652 20.193 19.9844C21.4461 18.7085 21.8383 17.1599 21.9244 15.4117C22.0248 13.6098 22.0248 8.21412 21.9244 6.4123ZM19.6382 17.345C19.2652 18.2995 18.543 19.0348 17.6008 19.4195C16.1898 19.9893 12.8419 19.8578 11.2828 19.8578C9.72358 19.8578 6.37087 19.9844 4.96475 19.4195C4.02733 19.0397 3.30513 18.3043 2.9273 17.345C2.36772 15.9084 2.49685 12.4995 2.49685 10.912C2.49685 9.32443 2.3725 5.91071 2.9273 4.47899C3.30035 3.52451 4.02255 2.78917 4.96475 2.40446C6.37566 1.83469 9.72358 1.96618 11.2828 1.96618C12.8419 1.96618 16.1946 1.83956 17.6008 2.40446C18.5382 2.7843 19.2604 3.51964 19.6382 4.47899C20.1978 5.91558 20.0687 9.32443 20.0687 10.912C20.0687 12.4995 20.1978 15.9133 19.6382 17.345Z" fill="white"/>
</svg>
