<svg width="25" height="21" viewBox="0 0 25 21" fill="none" xmlns="http://www.w3.org/2000/svg">
<path d="M22.0706 5.51356C22.086 5.73504 22.086 5.95656 22.086 6.17804C22.086 12.9334 17.0783 20.7172 7.92575 20.7172C5.10601 20.7172 2.48661 19.8787 0.283203 18.4232C0.683835 18.4707 1.069 18.4865 1.48505 18.4865C3.81167 18.4865 5.95347 17.6797 7.6638 16.3033C5.47581 16.2558 3.64221 14.7845 3.01046 12.7594C3.31865 12.8069 3.6268 12.8385 3.9504 12.8385C4.39723 12.8385 4.84411 12.7752 5.2601 12.6645C2.97968 12.1898 1.2693 10.1332 1.2693 7.64935V7.58609C1.93183 7.96579 2.70231 8.20309 3.5189 8.2347C2.17837 7.31709 1.30013 5.75086 1.30013 3.97894C1.30013 3.02972 1.54661 2.15959 1.97807 1.40019C4.42801 4.50103 8.11063 6.52604 12.24 6.74756C12.163 6.36787 12.1168 5.97239 12.1168 5.57687C12.1168 2.76076 14.3356 0.466797 17.0937 0.466797C18.5266 0.466797 19.8209 1.0838 20.73 2.0805C21.8548 1.85902 22.9334 1.43184 23.8887 0.846495C23.5189 2.03307 22.7331 3.02977 21.7008 3.66255C22.7023 3.55186 23.673 3.26702 24.5667 2.87155C23.8888 3.88403 23.0413 4.78577 22.0706 5.51356Z" fill="white"/>
</svg>
