<svg width="15" height="15" viewBox="0 0 15 15" fill="none" xmlns="http://www.w3.org/2000/svg">
<path d="M7.49839 3.62495C5.36911 3.62495 3.65162 5.32827 3.65162 7.43999C3.65162 9.55171 5.36911 11.255 7.49839 11.255C9.62768 11.255 11.3452 9.55171 11.3452 7.43999C11.3452 5.32827 9.62768 3.62495 7.49839 3.62495ZM7.49839 9.92026C6.12239 9.92026 4.99749 8.80796 4.99749 7.43999C4.99749 6.07202 6.11905 4.95972 7.49839 4.95972C8.87774 4.95972 9.9993 6.07202 9.9993 7.43999C9.9993 8.80796 8.8744 9.92026 7.49839 9.92026ZM12.3998 3.4689C12.3998 3.96362 11.998 4.35874 11.5025 4.35874C11.0037 4.35874 10.6053 3.9603 10.6053 3.4689C10.6053 2.97749 11.007 2.57905 11.5025 2.57905C11.998 2.57905 12.3998 2.97749 12.3998 3.4689ZM14.9475 4.37202C14.8906 3.18003 14.6161 2.12417 13.7356 1.25425C12.8584 0.384326 11.7938 0.112061 10.5919 0.0522949C9.35315 -0.0174316 5.64029 -0.0174316 4.40156 0.0522949C3.203 0.10874 2.13835 0.381006 1.25785 1.25093C0.37734 2.12085 0.106157 3.17671 0.045894 4.3687C-0.0244126 5.59722 -0.0244126 9.27944 0.045894 10.508C0.102809 11.7 0.37734 12.7558 1.25785 13.6257C2.13835 14.4957 3.19965 14.7679 4.40156 14.8277C5.64029 14.8974 9.35315 14.8974 10.5919 14.8277C11.7938 14.7712 12.8584 14.499 13.7356 13.6257C14.6128 12.7558 14.8873 11.7 14.9475 10.508C15.0179 9.27944 15.0179 5.60054 14.9475 4.37202ZM13.3472 11.8261C13.0861 12.4769 12.5806 12.9783 11.921 13.2406C10.9334 13.6291 8.58982 13.5394 7.49839 13.5394C6.40697 13.5394 4.06007 13.6257 3.07577 13.2406C2.41958 12.9816 1.91404 12.4802 1.64955 11.8261C1.25785 10.8466 1.34824 8.52241 1.34824 7.43999C1.34824 6.35757 1.26119 4.03003 1.64955 3.05386C1.91069 2.40308 2.41623 1.90171 3.07577 1.6394C4.06341 1.25093 6.40697 1.34058 7.49839 1.34058C8.58982 1.34058 10.9367 1.25425 11.921 1.6394C12.5772 1.89839 13.0827 2.39976 13.3472 3.05386C13.7389 4.03335 13.6485 6.35757 13.6485 7.43999C13.6485 8.52241 13.7389 10.85 13.3472 11.8261Z" fill="white"/>
</svg>
