<svg width="17" height="14" viewBox="0 0 17 14" fill="none" xmlns="http://www.w3.org/2000/svg">
<path d="M15.2493 3.44097C15.2601 3.59198 15.2601 3.74302 15.2601 3.89403C15.2601 8.49997 11.7547 13.8071 5.34785 13.8071C3.37402 13.8071 1.54044 13.2354 -0.00195312 12.243C0.27849 12.2754 0.54811 12.2862 0.839343 12.2862C2.46799 12.2862 3.96725 11.736 5.16448 10.7976C3.63289 10.7652 2.34936 9.76205 1.90713 8.38133C2.12287 8.41367 2.33857 8.43526 2.5651 8.43526C2.87788 8.43526 3.19069 8.39209 3.48189 8.31662C1.88559 7.99299 0.688315 6.59072 0.688315 4.8972V4.85407C1.15209 5.11295 1.69143 5.27475 2.26304 5.2963C1.32467 4.67065 0.709895 3.60277 0.709895 2.39464C0.709895 1.74745 0.882438 1.15417 1.18446 0.636404C2.89942 2.75061 5.47726 4.1313 8.36785 4.28234C8.31394 4.02346 8.28156 3.75381 8.28156 3.48414C8.28156 1.56407 9.83474 0 11.7654 0C12.7685 0 13.6745 0.420684 14.3109 1.10025C15.0982 0.949244 15.8532 0.657987 16.522 0.258885C16.2631 1.06791 15.713 1.74748 14.9904 2.17892C15.6915 2.10345 16.371 1.90925 16.9966 1.6396C16.5221 2.32993 15.9288 2.94475 15.2493 3.44097Z" fill="white"/>
</svg>
